<?xml version="1.0" encoding="UTF-8" standalone="no"?>
<!-- Created with Inkscape (http://www.inkscape.org/) -->

<svg
   width="210mm"
   height="297mm"
   viewBox="0 0 210 297"
   version="1.1"
   id="svg1"
   xml:space="preserve"
   inkscape:version="1.4.2 (ebf0e940d0, 2025-05-08)"
   sodipodi:docname="logo.svg"
   xmlns:inkscape="http://www.inkscape.org/namespaces/inkscape"
   xmlns:sodipodi="http://sodipodi.sourceforge.net/DTD/sodipodi-0.dtd"
   xmlns="http://www.w3.org/2000/svg"
   xmlns:svg="http://www.w3.org/2000/svg"><sodipodi:namedview
     id="namedview1"
     pagecolor="#ffffff"
     bordercolor="#eeeeee"
     borderopacity="1"
     inkscape:showpageshadow="0"
     inkscape:pageopacity="0"
     inkscape:pagecheckerboard="0"
     inkscape:deskcolor="#d1d1d1"
     inkscape:document-units="mm"
     inkscape:zoom="2.0157702"
     inkscape:cx="538.00776"
     inkscape:cy="419.93875"
     inkscape:window-width="2903"
     inkscape:window-height="2132"
     inkscape:window-x="0"
     inkscape:window-y="0"
     inkscape:window-maximized="0"
     inkscape:current-layer="layer1" /><defs
     id="defs1" /><g
     inkscape:label="Layer 1"
     inkscape:groupmode="layer"
     id="layer1"><rect
       style="fill:#fab927;fill-opacity:1;stroke:none;stroke-width:0.115339;stroke-opacity:1"
       id="rect11466"
       width="120"
       height="120"
       x="39.372868"
       y="32.030769"
       ry="18.507193"
       inkscape:export-filename="rect11466.png"
       inkscape:export-xdpi="96"
       inkscape:export-ydpi="96" /><path
       style="fill:#fa7027;fill-opacity:1;stroke:none;stroke-width:0.645236;stroke-opacity:1"
       d="m 107.86292,146.59112 c -2.9189,0.8375 -3.98299,0.01 -8.263082,-6.42762 -4.073443,-6.12659 -3.121333,-5.51136 -11.452115,-7.40011 -5.65554,-1.28224 -5.250746,-1.11823 -6.548494,-2.65328 -2.400469,-2.83943 -2.171885,-3.50584 4.377179,-12.76029 1.995229,-2.81945 1.957448,-2.03796 0.611384,-12.64688 -0.768954,-6.060527 1.270181,-8.292988 6.299998,-6.897285 11.66017,3.235575 10.53554,3.233305 17.04515,0.03419 6.11467,-3.00501 6.72256,-3.150155 8.5787,-2.048187 2.17248,1.289741 2.43123,2.060795 3.07244,9.154612 0.63706,7.04745 0.29105,6.35762 5.72194,11.40785 5.12011,4.76124 5.86258,5.98736 5.15501,8.51285 -0.6044,2.1572 -1.18371,2.51256 -7.30814,4.48274 -9.46929,3.04632 -7.86962,1.42089 -14.03594,14.26191 -0.72857,1.51723 -1.90181,2.59145 -3.25404,2.97943 z"
       id="path11462"
       sodipodi:nodetypes="ssssssssssssssss" /><path
       id="rect11460"
       style="fill:#ffffff;stroke:none;stroke-width:0.109"
       d="m 71.537752,38.847237 c -0.31721,0.630405 -0.400809,0.875069 -0.706933,2.075326 -0.594973,2.332785 -0.351068,7.286994 0.42701,10.893777 0.778079,3.606783 1.617486,6.627912 2.236393,8.441477 0.938599,2.750349 2.293388,5.633516 3.995622,8.504907 1.102593,1.859895 1.015274,1.718957 1.738395,2.810681 0.768353,1.160012 0.786301,0.988719 -0.199471,1.869137 -3.049492,2.723579 -4.926689,5.37491 -6.211507,8.772074 -2.603885,6.88489 -1.028004,14.032384 3.909839,17.733284 0.721197,0.54055 0.699688,0.4788 0.433048,1.25109 -1.058509,3.06584 0.251845,6.33414 3.106787,7.7494 2.452948,1.21597 4.855089,1.19737 6.496245,-0.0501 0.936828,-0.71216 0.991434,-2.42961 0.122473,-3.85713 -0.05134,-0.19217 -0.274514,-0.43124 -0.315227,-0.47697 -0.585218,-4.839023 0.656236,-7.19043 3.819406,-7.159257 0.729963,0.0072 1.62507,0.122223 2.544444,0.435298 4.180153,1.423466 7.298264,3.060209 10.240204,4.313539 1.97228,0.84023 1.98968,2.17647 1.79663,3.02526 -0.42676,1.87638 -0.90119,2.46909 -1.23241,3.38305 -0.81035,2.23608 -0.73924,5.22805 2.93777,6.53981 4.19327,1.49594 7.62913,-6.23414 7.94595,-8.86577 0.0861,-0.71545 0.67399,-1.1036 2.01969,-0.63267 2.26386,0.79222 4.48094,3.78819 5.35573,5.46178 0.8993,1.72048 -3.74726,9.50931 0.81111,11.63878 3.71093,1.73358 6.58738,-3.59858 8.00839,-5.52715 1.95898,-2.65872 2.78012,-7.79967 2.95796,-10.23865 0.20486,-2.80944 -0.33624,-4.44992 -1.18856,-6.73861 -0.15726,-0.422271 -0.28577,-0.788973 -0.28577,-0.814943 0,-0.11178 -0.6162,-1.360683 -1.02578,-2.078943 -2.39863,-4.20637 -5.38747,-6.923507 -10.40401,-9.458337 -1.22152,-0.61723 -1.1422,-0.521826 -1.2759,-1.532206 -0.11115,-0.83993 -0.5746,-2.562569 -0.81907,-3.044259 -0.0813,-0.16021 -0.17186,-0.373226 -0.20102,-0.473356 -0.67997,-2.33444 -4.17146,-6.858258 -6.88382,-8.918835 -0.71119,-0.540289 -0.69918,-0.455616 -0.16071,-1.099675 1.89667,-2.268582 4.92999,-7.042745 6.42803,-10.117728 1.43263,-2.940717 2.40718,-5.469474 3.05976,-7.938534 1.76766,-6.687985 2.04392,-11.54123 0.84491,-14.841988 -1.41178,-3.88651 -6.46441,-5.539868 -9.77149,-3.197738 -2.07459,1.469259 -4.19272,4.773241 -5.70508,8.900232 -0.84315,2.300812 -1.66992,5.373067 -2.05517,7.636227 -0.11835,0.6952 -0.22968,1.287832 -0.24753,1.316715 -0.0178,0.02888 -0.11755,0.656341 -0.22118,1.39423 -0.10363,0.737888 -0.25086,1.751384 -0.32711,2.252059 -0.0763,0.500676 -0.22239,1.680277 -0.32505,2.621546 -0.10266,0.94127 -0.252,2.252108 -0.33176,2.913 -0.0798,0.660891 -0.22964,2.00454 -0.33279,2.985864 -0.33001,3.139638 -0.20058,2.848386 -1.15084,2.589506 -0.72417,-0.197286 -0.81214,-0.216858 -2.084626,-0.466121 -2.4086,-0.471812 -5.886071,-0.546715 -8.579321,-0.184485 -0.60142,0.08089 -0.920787,0.09672 -0.969967,0.04754 -0.0655,-0.06554 -0.343138,-2.785616 -0.459403,-4.49895 -0.111693,-1.645965 -0.612923,-6.867154 -0.953842,-9.421515 -0.340919,-2.554361 -0.815534,-4.977773 -1.352478,-6.964048 -0.731586,-2.706298 -2.225254,-6.090781 -3.696415,-8.375199 -1.682206,-2.61213 -3.637501,-3.828228 -6.472283,-3.730135 -2.834781,0.09809 -4.319723,1.220888 -5.289273,3.147713 z m 9.499679,4.268478 c 0.966419,1.423115 2.435842,5.187471 2.816056,6.841071 0.380215,1.6536 0.670945,3.053657 0.959424,4.547897 0.494899,2.563443 1.097444,7.34772 1.316199,10.450525 0.196828,2.791789 0.236385,3.425767 0.245463,3.931027 l 0.0098,0.545186 -0.561206,0.160714 c -0.308595,0.08836 -0.620303,0.192613 -0.692981,0.23151 -0.07268,0.0389 -0.340085,0.140712 -0.594279,0.226343 -0.254195,0.08563 -0.81836,0.334105 -1.25367,0.552421 -0.932375,0.467604 -0.885062,0.461208 -1.106909,0.160714 -0.300884,-0.40755 -0.894373,-1.503669 -1.529623,-2.824634 -0.977156,-2.03194 -1.100628,-2.30602 -1.687085,-3.768891 C 78.372163,62.706727 77.480845,60.10238 77.277436,59.365885 76.802693,57.64696 76.542307,56.614567 76.30798,55.473172 76.073654,54.331777 75.973897,53.824001 75.782431,52.649767 75.590965,51.475533 75.473464,50.557893 75.308719,49.157014 75.143974,47.756136 75.18999,45.341793 75.353,44.454651 c 0.370445,-2.015791 1.487398,-3.12254 2.677573,-3.134654 1.190176,-0.01211 2.183578,0.583385 3.006858,1.795718 z m 36.448419,5.81773 c -0.14422,0.964662 -0.38519,2.462978 -0.52141,3.241146 -0.12808,0.731622 -0.67485,3.237419 -0.91528,4.113121 -0.24043,0.875703 -0.90148,3.134978 -1.68592,5.230425 -0.78443,2.095447 -1.24904,3.106351 -2.38868,5.440048 -0.41654,0.852972 -1.73336,3.315874 -1.96629,3.677812 -0.0643,0.09988 -0.21166,0.337135 -0.32763,0.527099 -0.7593,1.243833 -0.62523,1.188617 -1.52032,0.627352 -0.39499,-0.247683 -1.14692,-0.636572 -1.6707,-0.86403 -1.24138,-0.539078 -1.42575,-0.637529 -1.42575,-0.763261 0,-0.0576 0.0953,-0.704172 0.21136,-1.436605 0.11604,-0.732433 0.24767,-1.610325 0.29249,-1.950785 0.0448,-0.340459 0.11409,-0.815425 0.15399,-1.055749 0.0399,-0.240324 0.13877,-0.896003 0.22014,-1.456759 0.29922,-2.061968 0.44039,-2.90359 0.86558,-5.170227 0.49653,-2.646903 0.60524,-3.183499 0.92915,-4.588351 0.28639,-1.242087 0.37041,-1.555256 1.08779,-4.041613 1.61359,-5.592551 3.89455,-9.087487 6.14989,-8.884339 2.25533,0.203147 3.14927,3.089405 2.51159,7.354716 z M 95.634473,87.791024 c 1.122807,-0.0041 2.252002,0.150328 2.606042,0.466638 0.7378,0.65922 -0.9045,2.648772 -2.071708,2.692859 -0.371984,0.01405 -1.07487,-0.01499 -1.07487,-0.01499 l -0.02325,-0.02894 -0.429948,-0.08888 c -1.14413,-0.23632 -2.197941,-1.93674 -1.574581,-2.54093 0.32894,-0.318825 1.445511,-0.481662 2.568319,-0.485758 z m 15.397507,2.01228 c 2.17359,-0.11136 3.53006,2.070128 2.0128,3.587378 -0.58542,0.58543 -1.95714,0.823845 -2.88044,0.500745 -2.08538,-0.72977 -1.78279,-3.616989 0.42271,-4.034379 0.15156,-0.02868 0.30003,-0.04632 0.44493,-0.05374 z m -31.109727,0.05374 c 0.985858,0.01043 1.955532,0.514004 2.243274,1.503784 0.485677,1.67067 -1.003162,3.005381 -2.960542,2.654101 -1.323018,-0.23744 -2.065284,-1.47281 -1.623674,-2.70216 0.353121,-0.98301 1.355084,-1.466158 2.340942,-1.455725 z"
       sodipodi:nodetypes="sscsssssssscscsssssscssssssssssscsssssssscscscsssscscsscsscscccsssssscscccscssscccsssssssssscscssccsscssssssssssssss" /><path
       style="display:inline;fill:#14aea0;stroke-width:1.30475"
       d="m 105.42754,87.363579 c -0.15697,-0.08423 -0.38624,-0.2086 -0.5095,-0.276349 -0.65626,-0.360687 -1.35195,-1.814593 -1.42591,-2.979956 -0.048,-0.757027 -0.002,-0.822313 0.32774,-0.469609 0.33147,0.354058 0.6359,0.387628 0.90534,0.09989 0.65946,-0.704375 0.49151,-1.932638 -0.31185,-2.280705 -0.79906,-0.346197 0.47603,-1.473991 1.66652,-1.473991 2.37546,0 3.60952,3.72742 2.07562,6.269285 -0.5742,0.951518 -1.96796,1.519421 -2.72796,1.11151 z"
       id="path11460" /><path
       style="display:inline;fill:#14aea0;stroke-width:1.30475"
       d="m 83.490586,87.522904 c -1.061994,-0.451592 -1.796432,-1.719522 -1.93354,-3.338088 -0.07152,-0.844283 0.02458,-0.947838 0.424388,-0.45737 0.512164,0.628309 1.052566,0.479096 1.308957,-0.361416 0.201548,-0.660709 -0.185487,-1.666459 -0.641298,-1.666459 -0.612177,0 -0.42398,-0.649306 0.341558,-1.178409 1.86544,-1.289322 3.965193,0.505993 3.968243,3.392899 0.0027,2.538399 -1.734589,4.346059 -3.468308,3.608843 z"
       id="path11459" /><path
       style="display:inline;fill:#14aea0"
       d="m 94.504371,95.071479 c -2.24686,-0.36909 -3.8015,-1.74417 -3.81796,-3.377 -0.01,-0.99017 0.62234,-1.02562 0.87217,-0.0489 0.31346,1.22551 1.1911,1.94669 2.79503,2.29675 0.84538,0.18451 0.761824,0.320369 0.74341,-1.42206 -0.01812,-1.714385 -0.01287,-0.871144 -0.01801,-1.602041 0.447278,0.02746 0.660198,0.0406 1.093976,0.02335 -0.0013,0.667236 0.0037,0.8284 -0.0056,1.650745 -0.0194,1.71769 -0.10916,1.60272 1.02747,1.31539 1.4928,-0.37737 2.37531,-1.141 2.6281,-2.27408 0.191643,-0.85906 0.781133,-0.94336 0.911153,-0.1303 0.34957,2.1861 -2.991993,4.10002 -6.229743,3.56815 z"
       id="path11458" /><circle
       style="fill:#ffffff;fill-opacity:1;stroke:none;stroke-width:0.109;stroke-opacity:1"
       id="path11465"
       cx="133.46437"
       cy="99.959061"
       r="4.4549999" /></g></svg>
