<?xml version="1.0" encoding="UTF-8" standalone="no"?>
<!-- Created with Inkscape (http://www.inkscape.org/) -->

<svg
   width="210mm"
   height="297mm"
   viewBox="0 0 210 297"
   version="1.1"
   id="svg1"
   xml:space="preserve"
   inkscape:version="1.4.2 (ebf0e940d0, 2025-05-08)"
   sodipodi:docname="logo.svg"
   xmlns:inkscape="http://www.inkscape.org/namespaces/inkscape"
   xmlns:sodipodi="http://sodipodi.sourceforge.net/DTD/sodipodi-0.dtd"
   xmlns:xlink="http://www.w3.org/1999/xlink"
   xmlns="http://www.w3.org/2000/svg"
   xmlns:svg="http://www.w3.org/2000/svg"><sodipodi:namedview
     id="namedview1"
     pagecolor="#ffffff"
     bordercolor="#eeeeee"
     borderopacity="1"
     inkscape:showpageshadow="0"
     inkscape:pageopacity="0"
     inkscape:pagecheckerboard="0"
     inkscape:deskcolor="#d1d1d1"
     inkscape:document-units="mm"
     inkscape:zoom="0.71268239"
     inkscape:cx="544.42204"
     inkscape:cy="300.97559"
     inkscape:window-width="2651"
     inkscape:window-height="2132"
     inkscape:window-x="0"
     inkscape:window-y="0"
     inkscape:window-maximized="0"
     inkscape:current-layer="layer1"
     showgrid="false" /><defs
     id="defs1"><linearGradient
       id="linearGradient5"
       inkscape:collect="always"><stop
         style="stop-color:#fa9e27;stop-opacity:1;"
         offset="0"
         id="stop5" /><stop
         style="stop-color:#fa4a27;stop-opacity:1;"
         offset="1"
         id="stop6" /></linearGradient><linearGradient
       id="linearGradient3"
       inkscape:collect="always"><stop
         style="stop-color:#6cfff2;stop-opacity:1;"
         offset="0"
         id="stop3" /><stop
         style="stop-color:#3687c1;stop-opacity:1;"
         offset="1"
         id="stop4" /></linearGradient><linearGradient
       id="linearGradient1"
       inkscape:collect="always"><stop
         style="stop-color:#f9fa27;stop-opacity:1;"
         offset="0"
         id="stop1" /><stop
         style="stop-color:#fab927;stop-opacity:1;"
         offset="1"
         id="stop2" /></linearGradient><linearGradient
       inkscape:collect="always"
       xlink:href="#linearGradient1"
       id="linearGradient2"
       x1="39.187244"
       y1="31.876083"
       x2="189.41974"
       y2="182.23233"
       gradientUnits="userSpaceOnUse" /><linearGradient
       inkscape:collect="always"
       xlink:href="#linearGradient3"
       id="linearGradient4"
       x1="52.186256"
       y1="49.716469"
       x2="140.06354"
       y2="133.19572"
       gradientUnits="userSpaceOnUse" /><linearGradient
       inkscape:collect="always"
       xlink:href="#linearGradient5"
       id="linearGradient6"
       x1="102.43146"
       y1="93.443336"
       x2="176.59012"
       y2="165.89703"
       gradientUnits="userSpaceOnUse" /></defs><g
     inkscape:label="Layer 1"
     inkscape:groupmode="layer"
     id="layer1"><rect
       style="fill:url(#linearGradient2);fill-opacity:1;stroke:none;stroke-width:0.144218;stroke-opacity:1"
       id="rect11466"
       width="150.04688"
       height="150.04688"
       x="39.372868"
       y="32.030769"
       ry="23.141218"
       inkscape:export-filename="rect11466.png"
       inkscape:export-xdpi="96"
       inkscape:export-ydpi="96" /><path
       style="fill:url(#linearGradient6);fill-opacity:1;stroke:none;stroke-width:3;stroke-linejoin:round;stroke-dasharray:none;stroke-opacity:1"
       d="m 141.18514,164.64146 c -4.40013,1.79456 -7.29806,-2.90572 -9.43368,-5.92308 -2.63519,-3.39534 -4.32778,-7.63985 -7.7615,-10.33445 -4.40606,-2.23485 -9.50661,-2.51112 -14.21565,-3.85407 -3.60534,-0.35823 -7.1428,-3.73676 -6.87885,-7.44631 1.71932,-5.12041 5.49504,-9.22602 8.40772,-13.69537 2.95951,-3.38956 1.22042,-8.06678 0.97538,-12.04802 -0.33828,-4.32096 -1.99386,-9.20341 0.48074,-13.172563 2.67649,-3.17492 7.17655,-1.30682 10.47995,-0.42837 4.7535,1.03853 9.66789,3.526013 14.58906,2.11846 5.28372,-1.86009 9.92731,-5.495737 15.47131,-6.574267 3.39859,0.19832 6.03328,3.284067 6.14822,6.627247 0.92714,5.020923 0.58473,10.246603 1.93821,15.182853 1.95915,4.13374 6.12381,6.5767 9.16433,9.85365 2.46324,2.51173 6.19146,5.57599 4.76542,9.55128 -0.67773,3.73124 -5.00003,4.35675 -7.94676,5.50626 -4.38158,1.73829 -9.40529,2.21575 -13.23784,5.11983 -3.7366,3.98399 -5.3169,9.41793 -7.84681,14.16265 -0.96847,2.32999 -2.52953,4.6417 -5.09925,5.35427 z"
       id="path11462" /><path
       style="fill:url(#linearGradient4);fill-opacity:1;stroke:none;stroke-width:3;stroke-linejoin:round;stroke-dasharray:none;stroke-opacity:1"
       d="m 131.23468,128.30138 c -2.86276,5.08423 -9.23733,2.77486 -13.5943,1.50244 -5.12597,-1.25473 -9.99334,-4.04561 -15.35257,-4.01688 -5.943616,1.21299 -11.0605,4.83991 -16.614863,7.14203 -3.741244,2.40697 -9.722228,1.85702 -12.29941,-1.91252 -2.254061,-6.23728 -1.755659,-13.06787 -2.364988,-19.58968 0.25978,-5.51893 -4.982553,-8.69053 -8.256659,-12.332933 -3.623056,-3.89799 -8.941704,-7.330734 -9.59066,-13.03707 0.151378,-5.096502 5.905507,-6.734006 9.753343,-8.410151 5.364812,-2.628862 11.990181,-3.986821 15.649453,-9.096446 3.662631,-5.821596 5.354462,-12.862494 9.863919,-18.130979 3.420322,-2.402988 8.309533,-1.44567 10.971539,1.682292 4.723666,4.12186 8.382456,9.409574 13.451586,13.124614 5.03923,2.480899 10.90948,1.652299 16.33496,2.483804 4.2862,0.536033 10.21082,0.638118 11.87304,5.550131 2.19574,4.106173 -1.48434,8.006535 -3.44141,11.361093 -2.88785,5.015945 -7.35557,9.3092 -8.82563,15.027472 -0.55358,6.683733 2.07349,13.116513 3.26113,19.611063 0.84667,2.98024 1.10941,6.39517 -0.81848,9.04172 z"
       id="path1"
       inkscape:export-filename="rect11466.png"
       inkscape:export-xdpi="96"
       inkscape:export-ydpi="96" /></g></svg>
